<svg width="1117" height="359" viewBox="0 0 1117 359" fill="none" xmlns="http://www.w3.org/2000/svg">
<path d="M6 210.433L66.8024 177.002L127.605 183.346L188.407 279.003L249.21 283.64L310.012 348.306L370.815 313.96M370.815 313.96L431.515 300.256M370.815 313.96L553.222 272.781L614.024 353.735L674.827 254.357L735.629 221.536L796.431 187.739L857.234 254.845L918.036 186.031L978.839 115.264L1039.64 88.6653L1116 1" stroke="#8D8D8D" stroke-width="1.5"/>
<path d="M66.3958 182.187C69.4281 182.187 71.8863 179.729 71.8863 176.697C71.8863 173.664 69.4281 171.206 66.3958 171.206C63.3635 171.206 60.9053 173.664 60.9053 176.697C60.9053 179.729 63.3635 182.187 66.3958 182.187Z" fill="white" stroke="white"/>
<path d="M126.791 189.508C129.824 189.508 132.282 187.05 132.282 184.017C132.282 180.985 129.824 178.527 126.791 178.527C123.759 178.527 121.301 180.985 121.301 184.017C121.301 187.05 123.759 189.508 126.791 189.508Z" fill="white" stroke="white"/>
<path d="M189.017 282.847C192.05 282.847 194.508 280.388 194.508 277.356C194.508 274.324 192.05 271.865 189.017 271.865C185.985 271.865 183.527 274.324 183.527 277.356C183.527 280.388 185.985 282.847 189.017 282.847Z" fill="white" stroke="white"/>
<path d="M249.413 290.167C252.445 290.167 254.903 287.709 254.903 284.677C254.903 281.644 252.445 279.186 249.413 279.186C246.381 279.186 243.922 281.644 243.922 284.677C243.922 287.709 246.381 290.167 249.413 290.167Z" fill="white" stroke="white"/>
<path d="M311.639 350.563C314.671 350.563 317.129 348.105 317.129 345.073C317.129 342.04 314.671 339.582 311.639 339.582C308.607 339.582 306.148 342.04 306.148 345.073C306.148 348.105 308.607 350.563 311.639 350.563Z" fill="white" stroke="white"/>
<path d="M370.204 319.45C373.237 319.45 375.695 316.992 375.695 313.96C375.695 310.927 373.237 308.469 370.204 308.469C367.172 308.469 364.714 310.927 364.714 313.96C364.714 316.992 367.172 319.45 370.204 319.45Z" fill="white" stroke="white"/>
<path d="M458.053 299.318C461.085 299.318 463.544 296.86 463.544 293.828C463.544 290.795 461.085 288.337 458.053 288.337C455.021 288.337 452.562 290.795 452.562 293.828C452.562 296.86 455.021 299.318 458.053 299.318Z" fill="white" stroke="white"/>
<path d="M549.562 279.186C552.594 279.186 555.052 276.728 555.052 273.696C555.052 270.664 552.594 268.205 549.562 268.205C546.529 268.205 544.071 270.664 544.071 273.696C544.071 276.728 546.529 279.186 549.562 279.186Z" fill="white" stroke="white"/>
<path d="M613.617 357.884C616.649 357.884 619.108 355.425 619.108 352.393C619.108 349.361 616.649 346.903 613.617 346.903C610.585 346.903 608.126 349.361 608.126 352.393C608.126 355.425 610.585 357.884 613.617 357.884Z" fill="white" stroke="white"/>
<path d="M675.844 260.885C678.876 260.885 681.334 258.426 681.334 255.394C681.334 252.362 678.876 249.904 675.844 249.904C672.811 249.904 670.353 252.362 670.353 255.394C670.353 258.426 672.811 260.885 675.844 260.885Z" fill="white" stroke="white"/>
<path d="M796.635 194.998C799.667 194.998 802.126 192.54 802.126 189.508C802.126 186.476 799.667 184.017 796.635 184.017C793.603 184.017 791.145 186.476 791.145 189.508C791.145 192.54 793.603 194.998 796.635 194.998Z" fill="white" stroke="white"/>
<path d="M857.031 257.224C860.063 257.224 862.521 254.766 862.521 251.734C862.521 248.701 860.063 246.243 857.031 246.243C853.998 246.243 851.54 248.701 851.54 251.734C851.54 254.766 853.998 257.224 857.031 257.224Z" fill="white" stroke="white"/>
<path d="M1038.22 94.3389C1041.25 94.3389 1043.71 91.8808 1043.71 88.8484C1043.71 85.8161 1041.25 83.3579 1038.22 83.3579C1035.19 83.3579 1032.73 85.8161 1032.73 88.8484C1032.73 91.8808 1035.19 94.3389 1038.22 94.3389Z" fill="white" stroke="white"/>
<path d="M979.652 121.791C982.684 121.791 985.143 119.333 985.143 116.301C985.143 113.268 982.684 110.81 979.652 110.81C976.62 110.81 974.162 113.268 974.162 116.301C974.162 119.333 976.62 121.791 979.652 121.791Z" fill="white" stroke="white"/>
<path d="M6.49052 214.981C9.52285 214.981 11.981 212.523 11.981 209.491C11.981 206.458 9.52285 204 6.49052 204C3.45819 204 1 206.458 1 209.491C1 212.523 3.45819 214.981 6.49052 214.981Z" fill="white" stroke="white"/>
</svg>
