<svg width="828" height="476" viewBox="0 0 828 476" fill="none" xmlns="http://www.w3.org/2000/svg">
<path d="M149.597 223.82L178.513 207.921L207.429 210.938L236.345 256.43L265.261 258.635L294.177 289.389L323.094 273.055M323.094 273.055L351.961 266.538M323.094 273.055L409.842 253.471L438.758 291.971L467.674 244.709L496.591 229.1L525.507 213.027L554.423 244.941L583.339 212.215L612.255 178.56L641.171 165.91L677.486 124.219" stroke="#8D8D8D" stroke-width="1.5"/>
<path d="M178.32 210.387C179.762 210.387 180.931 209.218 180.931 207.775C180.931 206.333 179.762 205.164 178.32 205.164C176.878 205.164 175.708 206.333 175.708 207.775C175.708 209.218 176.878 210.387 178.32 210.387Z" fill="white" stroke="white"/>
<path d="M207.042 213.868C208.484 213.868 209.653 212.699 209.653 211.257C209.653 209.815 208.484 208.646 207.042 208.646C205.6 208.646 204.431 209.815 204.431 211.257C204.431 212.699 205.6 213.868 207.042 213.868Z" fill="white" stroke="white"/>
<path d="M236.635 258.258C238.077 258.258 239.246 257.089 239.246 255.647C239.246 254.205 238.077 253.036 236.635 253.036C235.193 253.036 234.024 254.205 234.024 255.647C234.024 257.089 235.193 258.258 236.635 258.258Z" fill="white" stroke="white"/>
<path d="M265.358 261.74C266.8 261.74 267.969 260.571 267.969 259.129C267.969 257.687 266.8 256.518 265.358 256.518C263.916 256.518 262.747 257.687 262.747 259.129C262.747 260.571 263.916 261.74 265.358 261.74Z" fill="white" stroke="white"/>
<path d="M294.951 290.462C296.394 290.462 297.563 289.293 297.563 287.851C297.563 286.409 296.394 285.24 294.951 285.24C293.509 285.24 292.34 286.409 292.34 287.851C292.34 289.293 293.509 290.462 294.951 290.462Z" fill="white" stroke="white"/>
<path d="M322.804 275.666C324.246 275.666 325.415 274.497 325.415 273.055C325.415 271.613 324.246 270.444 322.804 270.444C321.361 270.444 320.192 271.613 320.192 273.055C320.192 274.497 321.361 275.666 322.804 275.666Z" fill="white" stroke="white"/>
<path d="M364.582 266.092C366.024 266.092 367.194 264.923 367.194 263.481C367.194 262.039 366.024 260.87 364.582 260.87C363.14 260.87 361.971 262.039 361.971 263.481C361.971 264.923 363.14 266.092 364.582 266.092Z" fill="white" stroke="white"/>
<path d="M408.102 256.517C409.544 256.517 410.713 255.348 410.713 253.906C410.713 252.464 409.544 251.295 408.102 251.295C406.66 251.295 405.491 252.464 405.491 253.906C405.491 255.348 406.66 256.517 408.102 256.517Z" fill="white" stroke="white"/>
<path d="M438.565 293.944C440.007 293.944 441.176 292.775 441.176 291.333C441.176 289.891 440.007 288.722 438.565 288.722C437.123 288.722 435.954 289.891 435.954 291.333C435.954 292.775 437.123 293.944 438.565 293.944Z" fill="white" stroke="white"/>
<path d="M468.158 247.814C469.6 247.814 470.769 246.645 470.769 245.203C470.769 243.761 469.6 242.592 468.158 242.592C466.716 242.592 465.547 243.761 465.547 245.203C465.547 246.645 466.716 247.814 468.158 247.814Z" fill="white" stroke="white"/>
<path d="M525.604 216.48C527.046 216.48 528.215 215.311 528.215 213.868C528.215 212.426 527.046 211.257 525.604 211.257C524.162 211.257 522.993 212.426 522.993 213.868C522.993 215.311 524.162 216.48 525.604 216.48Z" fill="white" stroke="white"/>
<path d="M554.326 246.073C555.768 246.073 556.937 244.904 556.937 243.462C556.937 242.02 555.768 240.851 554.326 240.851C552.884 240.851 551.715 242.02 551.715 243.462C551.715 244.904 552.884 246.073 554.326 246.073Z" fill="white" stroke="white"/>
<path d="M640.495 168.608C641.937 168.608 643.106 167.439 643.106 165.997C643.106 164.555 641.937 163.386 640.495 163.386C639.053 163.386 637.884 164.555 637.884 165.997C637.884 167.439 639.053 168.608 640.495 168.608Z" fill="white" stroke="white"/>
<path d="M612.642 181.664C614.085 181.664 615.254 180.495 615.254 179.053C615.254 177.611 614.085 176.442 612.642 176.442C611.2 176.442 610.031 177.611 610.031 179.053C610.031 180.495 611.2 181.664 612.642 181.664Z" fill="white" stroke="white"/>
<path d="M149.83 225.983C151.272 225.983 152.441 224.814 152.441 223.372C152.441 221.93 151.272 220.76 149.83 220.76C148.388 220.76 147.219 221.93 147.219 223.372C147.219 224.814 148.388 225.983 149.83 225.983Z" fill="white" stroke="white"/>
<rect x="94.4487" y="6" width="637.518" height="408.317" rx="11" stroke="#A4A4A4" stroke-width="12"/>
<g filter="url(#filter0_d)">
<path d="M23 420.33H804.376V420.33C804.376 436.716 791.092 450 774.706 450H52.6703C36.2838 450 23 436.716 23 420.33V420.33Z" fill="#747474"/>
</g>
<path d="M339.08 420.33H488.296V420.33C488.296 426.702 483.13 431.868 476.757 431.868H350.619C344.246 431.868 339.08 426.702 339.08 420.33V420.33Z" fill="#ECECEC"/>
<defs>
<filter id="filter0_d" x="0" y="400.33" width="827.376" height="75.6703" filterUnits="userSpaceOnUse" color-interpolation-filters="sRGB">
<feFlood flood-opacity="0" result="BackgroundImageFix"/>
<feColorMatrix in="SourceAlpha" type="matrix" values="0 0 0 0 0 0 0 0 0 0 0 0 0 0 0 0 0 0 127 0"/>
<feOffset dy="3"/>
<feGaussianBlur stdDeviation="11.5"/>
<feColorMatrix type="matrix" values="0 0 0 0 0 0 0 0 0 0 0 0 0 0 0 0 0 0 0.25 0"/>
<feBlend mode="normal" in2="BackgroundImageFix" result="effect1_dropShadow"/>
<feBlend mode="normal" in="SourceGraphic" in2="effect1_dropShadow" result="shape"/>
</filter>
</defs>
</svg>
