<svg width="545" height="460" viewBox="0 0 545 460" fill="none" xmlns="http://www.w3.org/2000/svg">
<path d="M316.302 413.279L311.532 359.703H232.997L228.227 413.279C227.114 425.679 219.642 437.603 207.878 447.141V447.3H336.651V447.141C324.886 437.603 317.414 425.679 316.302 413.279Z" fill="#BFCFE2"/>
<path opacity="0.28" d="M232.996 359.703L230.135 391.817H314.394L311.532 359.703H232.996Z" fill="#1F3969" stroke="#1F3969" stroke-width="4" stroke-miterlimit="10" stroke-linecap="round" stroke-linejoin="round"/>
<path d="M316.302 413.279L311.532 359.703H232.997L228.227 413.279C227.114 425.679 219.642 437.603 207.878 447.141V447.3H336.651V447.141C324.886 437.603 317.414 425.679 316.302 413.279Z" stroke="#505050" stroke-width="4" stroke-miterlimit="10" stroke-linecap="round" stroke-linejoin="round"/>
<path d="M523.451 367.652H21.0775C10.5849 367.652 2 359.067 2 348.574V21.0775C2 10.5849 10.5849 2 21.0775 2H523.451C533.944 2 542.528 10.5849 542.528 21.0775V348.574C542.528 359.226 533.944 367.652 523.451 367.652Z" fill="white"/>
<path d="M523.451 367.652H21.0775C10.5849 367.652 2 359.067 2 348.574V21.0775C2 10.5849 10.5849 2 21.0775 2H523.451C533.944 2 542.528 10.5849 542.528 21.0775V348.574C542.528 359.226 533.944 367.652 523.451 367.652Z" fill="#E0E0E0"/>
<path d="M523.451 367.652H21.0775C10.5849 367.652 2 359.067 2 348.574V21.0775C2 10.5849 10.5849 2 21.0775 2H523.451C533.944 2 542.528 10.5849 542.528 21.0775V348.574C542.528 359.226 533.944 367.652 523.451 367.652Z" stroke="#505050" stroke-width="4" stroke-miterlimit="10" stroke-linecap="round" stroke-linejoin="round"/>
<path d="M515.589 306.648V29.071L29.1134 29.071L29.1134 306.648L515.589 306.648Z" fill="white"/>
<path opacity="0.32" d="M393.248 265.535H178.931C174.065 265.535 170.198 261.571 170.198 256.864V105.005C170.198 100.174 174.19 96.334 178.931 96.334H393.248C398.113 96.334 401.981 100.298 401.981 105.005V256.74C401.981 261.571 398.113 265.535 393.248 265.535Z" fill="#848484"/>
<path d="M383.971 256.263H169.656C164.791 256.263 160.924 252.297 160.924 247.586V95.7392C160.924 90.9049 164.916 87.0623 169.656 87.0623H383.971C388.836 87.0623 392.703 91.0289 392.703 95.7392V247.586C392.828 252.421 388.836 256.263 383.971 256.263Z" fill="#AFB1B2"/>
<path d="M383.971 256.263H169.656C164.791 256.263 160.924 252.297 160.924 247.586V95.7392C160.924 90.9049 164.916 87.0623 169.656 87.0623H383.971C388.836 87.0623 392.703 91.0289 392.703 95.7392V247.586C392.828 252.421 388.836 256.263 383.971 256.263Z" stroke="#444E59" stroke-width="4" stroke-miterlimit="10" stroke-linecap="round" stroke-linejoin="round"/>
<path d="M365.427 242.357H151.112C146.247 242.357 142.38 238.339 142.38 233.567V79.6273C142.38 74.7303 146.372 70.8379 151.112 70.8379H365.427C370.292 70.8379 374.159 74.8559 374.159 79.6273V233.442C374.284 238.339 370.292 242.357 365.427 242.357Z" fill="white"/>
<path d="M365.427 242.357H151.112C146.247 242.357 142.38 238.339 142.38 233.567V79.6273C142.38 74.7303 146.372 70.8379 151.112 70.8379H365.427C370.292 70.8379 374.159 74.8559 374.159 79.6273V233.442C374.284 238.339 370.292 242.357 365.427 242.357Z" stroke="#444E59" stroke-width="4" stroke-miterlimit="10" stroke-linecap="round" stroke-linejoin="round"/>
<path d="M374.162 96.3339H142.38V79.7375C142.38 74.9269 146.494 70.8379 151.606 70.8379H365.559C370.297 70.8379 374.162 74.5661 374.162 79.1362V96.3339Z" fill="#BBBFC2"/>
<path d="M374.162 96.3339H142.38V79.7375C142.38 74.9269 146.494 70.8379 151.606 70.8379H365.559C370.297 70.8379 374.162 74.5661 374.162 79.1362V96.3339Z" stroke="#444E59" stroke-width="4" stroke-miterlimit="10" stroke-linecap="round" stroke-linejoin="round"/>
<path d="M165.038 107.33C167.315 107.33 169.161 105.484 169.161 103.207C169.161 100.93 167.315 99.0837 165.038 99.0837C162.761 99.0837 160.915 100.93 160.915 103.207C160.915 105.484 162.761 107.33 165.038 107.33Z" fill="#444E59"/>
<path d="M178.656 107.33C180.933 107.33 182.779 105.484 182.779 103.207C182.779 100.93 180.933 99.0837 178.656 99.0837C176.379 99.0837 174.533 100.93 174.533 103.207C174.533 105.484 176.379 107.33 178.656 107.33Z" fill="#444E59"/>
<path d="M192.151 107.33C194.428 107.33 196.274 105.484 196.274 103.207C196.274 100.93 194.428 99.0837 192.151 99.0837C189.873 99.0837 188.027 100.93 188.027 103.207C188.027 105.484 189.873 107.33 192.151 107.33Z" fill="#444E59"/>
<path d="M353.13 142.69H163.415C162.045 142.69 160.924 141.618 160.924 140.308V114.941C160.924 113.63 162.045 112.559 163.415 112.559H353.13C354.5 112.559 355.621 113.63 355.621 114.941V140.308C355.621 141.618 354.5 142.69 353.13 142.69Z" fill="#6567C3"/>
<path opacity="0.2" d="M217.518 176.42H162.665C161.291 176.42 160.166 175.296 160.166 173.921V159.552C160.166 158.178 161.291 157.053 162.665 157.053H217.518C218.892 157.053 220.017 158.178 220.017 159.552V173.921C220.017 175.296 219.017 176.42 217.518 176.42Z" fill="#444E59"/>
<path opacity="0.2" d="M169.038 209.54H213.02" stroke="#444E59" stroke-width="4" stroke-miterlimit="10" stroke-linecap="round" stroke-linejoin="round"/>
<path opacity="0.2" d="M169.038 223.659H213.02" stroke="#444E59" stroke-width="4" stroke-miterlimit="10" stroke-linecap="round" stroke-linejoin="round"/>
<path opacity="0.2" d="M286.242 176.42H231.389C230.015 176.42 228.89 175.296 228.89 173.921V159.552C228.89 158.178 230.015 157.053 231.389 157.053H286.242C287.617 157.053 288.741 158.178 288.741 159.552V173.921C288.741 175.296 287.617 176.42 286.242 176.42Z" fill="#444E59"/>
<path opacity="0.2" d="M237.638 190.54H279.871" stroke="#444E59" stroke-width="4" stroke-miterlimit="10" stroke-linecap="round" stroke-linejoin="round"/>
<path opacity="0.2" d="M237.638 204.659H279.871" stroke="#444E59" stroke-width="4" stroke-miterlimit="10" stroke-linecap="round" stroke-linejoin="round"/>
<g opacity="0.2">
<path opacity="0.2" d="M354.839 206.408H299.986C298.612 206.408 297.487 205.284 297.487 203.909V159.677C297.487 158.303 298.612 157.178 299.986 157.178H354.839C356.214 157.178 357.338 158.303 357.338 159.677V203.909C357.338 205.284 356.214 206.408 354.839 206.408Z" fill="#444E59"/>
</g>
<g opacity="0.09">
<path opacity="0.09" d="M353.09 220.528H300.861C298.862 220.528 297.363 218.903 297.363 217.029C297.363 215.155 298.987 213.531 300.861 213.531H353.09C355.09 213.531 356.589 215.155 356.589 217.029C356.589 218.903 354.965 220.528 353.09 220.528Z" fill="#444E59"/>
</g>
<g opacity="0.3">
<g opacity="0.3">
<path opacity="0.3" d="M355 207.19V210.109H352.081" stroke="#444E59" stroke-width="2" stroke-linejoin="round"/>
<path opacity="0.3" d="M348.384 210.11H266.841" stroke="#444E59" stroke-width="2" stroke-linejoin="round" stroke-dasharray="2.86 2.86"/>
<path opacity="0.3" d="M264.894 210.109H261.975V207.19" stroke="#444E59" stroke-width="2" stroke-linejoin="round"/>
<path opacity="0.3" d="M261.974 125.258V122.339H264.893" stroke="#444E59" stroke-width="2" stroke-linejoin="round"/>
<path opacity="0.3" d="M352.081 122.338H355V125.257" stroke="#444E59" stroke-width="2" stroke-linejoin="round"/>
<path opacity="0.3" d="M355.002 129.149V205.244" stroke="#444E59" stroke-width="2" stroke-linejoin="round" stroke-dasharray="3 3"/>
</g>
</g>
<path d="M515.589 304.648V31.071C515.589 29.9665 514.693 29.071 513.589 29.071L31.1134 29.071C30.0088 29.071 29.1134 29.9665 29.1134 31.071L29.1134 304.648C29.1134 305.753 30.0088 306.648 31.1134 306.648L513.589 306.648C514.693 306.648 515.589 305.753 515.589 304.648Z" stroke="#7E7E7E" stroke-width="2" stroke-miterlimit="10" stroke-linecap="round" stroke-linejoin="round"/>
<path d="M250.96 336.969H293.726" stroke="#A9A9A9" stroke-width="4" stroke-miterlimit="10" stroke-linecap="round" stroke-linejoin="round"/>
<path d="M142 453.347C142 449.841 144.841 447 148.347 447H390.653C394.159 447 397 449.841 397 453.347V453.347C397 456.852 394.159 459.693 390.653 459.693H148.347C144.841 459.693 142 456.852 142 453.347V453.347Z" fill="#DADADA"/>
</svg>
